<svg width="1000" height="207" viewBox="143.37 143.37 3767.45 780.71" fill="none" xmlns="http://www.w3.org/2000/svg">
<path d="M1263.87 390.188C1282.83 390.188 1299.17 393.95 1312.89 401.46C1326.63 408.984 1337.72 419.281 1346.24 432.353L1352.12 393.124H1398.2V633.853C1398.2 669.157 1387.74 696.532 1366.82 715.977C1345.9 735.421 1313.53 745.15 1269.74 745.15C1235.74 745.15 1208.12 737.546 1186.89 722.35C1165.63 707.154 1153.87 685.652 1151.58 657.871H1205.52C1208.78 671.917 1216.3 682.796 1228.08 690.482C1239.85 698.155 1255.05 701.998 1273.68 701.998C1321.73 701.998 1345.75 678.629 1345.75 631.891V603.947C1327.44 631.403 1300.15 645.138 1263.87 645.138C1240.99 645.138 1220.55 639.996 1202.58 629.698C1184.6 619.401 1170.54 604.691 1160.42 585.571C1150.28 566.451 1145.22 543.813 1145.22 517.67C1145.22 491.527 1150.36 470.281 1160.66 450.985C1170.96 431.703 1185.09 416.75 1203.07 406.128C1221.04 395.506 1241.31 390.188 1263.87 390.188ZM3685.56 390.179C3708.44 390.179 3728.86 395.321 3746.84 405.618C3764.81 415.916 3778.87 430.787 3789.01 450.232C3799.13 469.677 3804.2 492.478 3804.2 518.635C3804.2 544.791 3799.13 566.605 3789.01 586.05C3778.87 605.495 3764.81 620.542 3746.84 631.15C3728.86 641.773 3708.43 647.091 3685.56 647.091C3666.93 647.091 3650.74 643.653 3637.02 636.793C3623.29 629.932 3612.34 620.61 3604.17 608.851V742.205H3551.22V393.115H3597.3L3603.68 430.382C3623.94 403.589 3651.24 390.179 3685.56 390.179ZM1537.67 390.179C1561.52 390.179 1583.19 395.077 1601.66 404.888C1620.12 414.698 1634.68 428.595 1645.3 446.565C1655.92 464.549 1661.4 485.631 1661.73 509.812C1661.73 516.348 1661.24 523.046 1660.25 529.92H1471V532.856C1472.3 554.764 1479.17 572.085 1491.59 584.832C1504.01 597.579 1520.52 603.952 1541.12 603.952C1557.47 603.952 1571.19 600.109 1582.31 592.437C1593.42 584.764 1600.77 573.885 1604.38 559.825H1657.33C1652.74 585.319 1640.41 606.239 1620.31 622.585C1600.2 638.931 1575.11 647.104 1545.04 647.104C1518.89 647.104 1496.09 641.8 1476.64 631.164C1457.2 620.542 1442.15 605.589 1431.54 586.307C1420.92 567.024 1415.6 544.629 1415.6 519.136L1415.59 519.122C1415.59 493.304 1420.73 470.665 1431.03 451.22C1441.32 431.775 1455.71 416.741 1474.18 406.119C1492.63 395.497 1513.81 390.179 1537.67 390.179ZM2482.42 390.179C2506.28 390.179 2527.93 395.077 2546.41 404.888C2564.87 414.698 2579.43 428.595 2590.05 446.565C2600.67 464.549 2606.14 485.632 2606.48 509.812C2606.48 516.348 2605.99 523.046 2605 529.92H2415.75V532.856C2417.05 554.764 2423.92 572.085 2436.35 584.832C2448.77 597.579 2465.28 603.952 2485.87 603.952C2502.22 603.952 2515.94 600.109 2527.06 592.437C2538.17 584.764 2545.52 573.885 2549.12 559.825H2602.07C2597.48 585.319 2585.15 606.239 2565.04 622.585C2544.94 638.931 2519.85 647.104 2489.78 647.104C2463.63 647.104 2440.82 641.8 2421.38 631.164C2401.92 620.542 2386.89 605.589 2376.28 586.307C2365.66 567.024 2360.34 544.629 2360.34 519.136L2360.35 519.122C2360.35 493.304 2365.49 470.665 2375.79 451.22C2386.09 431.775 2400.47 416.741 2418.93 406.119C2437.39 395.497 2458.56 390.179 2482.42 390.179ZM2736.85 389.681C2768.56 389.681 2794.29 396.717 2814.08 410.763C2833.84 424.822 2844.55 444.592 2846.19 470.086H2794.71C2793.4 458.652 2787.68 449.247 2777.55 441.899C2767.42 434.538 2754.67 430.871 2739.31 430.871C2723.96 430.871 2711.53 433.807 2702.05 439.693C2692.56 445.58 2687.83 453.59 2687.83 463.712C2687.83 471.236 2690.19 476.879 2694.93 480.627C2699.67 484.389 2705.63 487 2712.82 488.475C2720 489.95 2731.61 491.655 2747.63 493.617C2769.2 495.904 2787.35 499.422 2802.06 504.158C2816.77 508.894 2828.54 516.418 2837.36 526.716C2846.19 537.013 2850.6 550.991 2850.6 568.637C2850.6 584.32 2846.02 598.135 2836.88 610.07C2827.72 622.005 2815.13 631.153 2799.12 637.526C2783.1 643.9 2765.12 647.093 2745.19 647.093C2711.52 647.093 2684.31 639.488 2663.55 624.292C2642.79 609.096 2632.09 588.095 2631.44 561.289H2682.41C2683.4 574.36 2689.52 585.064 2700.8 593.399C2712.07 601.735 2726.7 605.902 2744.69 605.902C2760.69 605.902 2773.68 602.885 2783.67 596.837C2793.64 590.788 2798.62 582.696 2798.62 572.561C2798.62 564.063 2796.34 557.689 2791.76 553.44C2787.17 549.192 2781.04 546.174 2773.37 544.374C2765.69 542.574 2753.83 540.693 2737.83 538.731C2715.92 536.12 2697.87 532.602 2683.64 528.19C2669.42 523.779 2657.97 516.756 2649.33 507.108C2640.67 497.474 2636.34 484.483 2636.34 468.123C2636.34 452.765 2640.67 439.125 2649.33 427.19C2657.99 415.269 2669.92 406.027 2685.12 399.491C2700.32 392.955 2717.55 389.681 2736.85 389.681ZM991.646 390.179C1009.95 390.179 1025.96 393.535 1039.7 400.233C1053.43 406.932 1064.53 416.174 1073.04 427.933V393.115H1125.99V644.154H1079.9L1073.53 606.401C1053.58 633.532 1026.29 647.091 991.646 647.091C968.763 647.091 948.33 641.949 930.36 631.651C912.377 621.354 898.318 606.482 888.196 587.037C878.061 567.592 873 544.791 873 518.635C873 492.478 878.142 470.665 888.439 451.22C898.737 431.775 912.864 416.741 930.848 406.119C948.818 395.497 969.088 390.179 991.646 390.179ZM3397.63 390.161C3422.81 390.161 3445.1 395.56 3464.56 406.345C3484 417.129 3499.03 432.257 3509.66 451.702C3520.28 471.147 3525.6 493.461 3525.6 518.63C3525.6 543.799 3520.28 566.6 3509.66 586.045C3499.03 605.49 3483.99 620.537 3464.56 631.146C3445.11 641.768 3422.8 647.086 3397.63 647.086C3372.46 647.086 3350.15 641.781 3330.7 631.146C3311.24 620.523 3296.21 605.49 3285.6 586.045C3274.98 566.6 3269.66 544.124 3269.66 518.63C3269.66 493.136 3274.96 471.161 3285.6 451.702C3296.22 432.257 3311.26 417.143 3330.7 406.345C3350.15 395.56 3372.45 390.161 3397.63 390.161ZM2335.38 644.146H2289.3L2282.92 606.393C2262.98 633.524 2235.68 647.083 2201.04 647.083C2178.16 647.083 2157.73 641.941 2139.76 631.644C2121.77 621.346 2107.71 606.474 2097.59 587.029C2087.46 567.584 2082.4 544.784 2082.4 518.627C2082.4 492.47 2087.54 470.657 2097.84 451.212C2108.13 431.767 2122.26 416.734 2140.25 406.111C2158.21 395.489 2178.48 390.171 2201.04 390.171C2219.35 390.171 2235.36 393.527 2249.09 400.225C2262.83 406.923 2273.92 416.165 2282.44 427.924V323H2335.38V644.146ZM2930.49 515.69L3045.23 393.121H3106.51L3012.86 494.121L3112.39 644.16H3049.63L2975.09 532.862L2930.48 579.925V644.16H2877.53L2877.54 644.146V323H2930.49V515.69ZM1813.31 390.179C1828.02 390.179 1841.58 392.385 1854 396.796C1866.43 401.207 1877.13 408.163 1886.11 417.635C1895.1 427.12 1902.05 439.136 1906.95 453.669C1911.85 468.215 1914.31 485.617 1914.31 505.888V644.154H1860.88V508.824C1860.88 484.968 1855.8 466.822 1845.68 454.4C1835.55 441.978 1820.68 435.767 1801.07 435.767C1780.15 435.767 1763.72 443.047 1751.8 457.58C1739.86 472.127 1733.9 492.14 1733.9 517.647V644.141H1680.95V393.115H1727.02L1732.91 425.97C1751.87 402.114 1778.67 390.179 1813.31 390.179ZM2000.18 393.107H2060.49V439.684H2000.18V570.588C2000.18 580.398 2002.14 587.34 2006.06 591.427C2009.99 595.513 2016.69 597.557 2026.17 597.557H2066.37V644.133H2015.39C1991.52 644.133 1974.11 638.666 1963.17 627.705C1952.21 616.758 1946.74 599.519 1946.74 575.974V323H2000.18V393.107ZM3177.83 393.107H3238.14V439.684H3177.83V570.588C3177.83 580.398 3179.79 587.34 3183.72 591.427C3187.64 595.513 3194.34 597.557 3203.83 597.557H3244.03V644.133H3193.04C3169.17 644.133 3151.77 638.666 3140.82 627.705C3129.86 616.758 3124.4 599.519 3124.4 575.974V323H3177.83V393.107ZM1000.47 435.28C978.574 435.28 960.915 443.048 947.519 458.568C934.109 474.103 927.411 494.116 927.411 518.635C927.411 543.154 934.109 563.669 947.519 579.189C960.915 594.724 978.574 602.476 1000.47 602.477C1022.36 602.477 1040.01 594.805 1053.42 579.433C1066.81 564.074 1073.53 544.129 1073.53 519.609C1073.53 495.09 1066.83 474.089 1053.42 458.568C1040.01 443.048 1022.36 435.28 1000.47 435.28ZM3676.74 435.28C3654.84 435.28 3637.18 442.885 3623.79 458.081C3610.38 473.277 3603.68 493.142 3603.68 517.647C3603.68 542.153 3610.38 563.249 3623.79 578.932C3637.18 594.615 3654.84 602.464 3676.74 602.464V602.477C3698.63 602.477 3716.37 594.628 3729.93 578.945C3743.49 563.262 3750.28 543.154 3750.28 518.635C3750.28 494.115 3743.49 473.696 3729.93 458.324C3716.36 442.966 3698.63 435.28 3676.74 435.28ZM2209.87 435.271C2187.97 435.271 2170.31 443.039 2156.92 458.56C2143.51 474.094 2136.81 494.108 2136.81 518.627C2136.81 543.146 2143.51 563.66 2156.92 579.181C2170.31 594.715 2187.97 602.469 2209.87 602.469C2231.76 602.469 2249.4 594.797 2262.81 579.425C2276.21 564.066 2282.92 544.12 2282.92 519.601C2282.92 495.081 2276.22 474.08 2262.81 458.56C2249.4 443.039 2231.76 435.272 2209.87 435.271ZM3397.63 435.275C3375.4 435.275 3357.59 443.043 3344.19 458.563C3330.78 474.098 3324.08 494.111 3324.08 518.63C3324.08 543.149 3330.78 563.176 3344.19 578.697C3357.59 594.232 3375.4 601.985 3397.63 601.985C3419.85 601.985 3437.75 594.218 3451.32 578.697C3464.88 563.176 3471.67 543.149 3471.67 518.63C3471.67 494.111 3464.88 474.098 3451.32 458.563C3437.75 443.043 3419.86 435.275 3397.63 435.275ZM1272.68 434.788C1250.78 434.788 1233.12 442.475 1219.73 457.833C1206.32 473.205 1199.62 493.137 1199.62 517.643C1199.62 542.148 1206.32 562.094 1219.73 577.466C1233.12 592.838 1250.78 600.511 1272.68 600.511C1294.57 600.511 1312.22 592.906 1325.63 577.71C1339.02 562.514 1345.73 542.825 1345.73 518.631C1345.73 494.436 1339.04 473.61 1325.63 458.076C1312.22 442.555 1294.57 434.788 1272.68 434.788ZM1539.64 432.844C1522.31 432.844 1507.36 438.162 1494.79 448.784C1482.2 459.406 1474.94 473.547 1472.97 491.192H1607.8L1607.79 491.179C1605.5 472.871 1598.22 458.568 1585.98 448.284C1573.72 437.987 1558.28 432.844 1539.64 432.844ZM2484.4 432.844C2467.06 432.844 2452.11 438.162 2439.54 448.784C2426.95 459.406 2419.69 473.547 2417.73 491.192H2552.56L2552.54 491.179C2550.26 472.871 2542.97 458.568 2530.73 448.284C2518.47 437.987 2503.03 432.844 2484.4 432.844ZM1398.21 393.124H1398.2V393.111L1398.21 393.124Z" fill="white"/>
<path d="M320.873 391.183C360.024 391.183 391.746 359.567 391.746 320.605C391.746 281.642 360.024 250 320.873 250C281.723 250 250 281.588 250 320.578C250 359.567 281.723 391.156 320.873 391.156L320.873 391.183Z" fill="white"/>
<path d="M320.873 604.336C360.024 604.336 391.746 572.72 391.746 533.758C391.746 494.795 360.024 463.18 320.873 463.18C281.723 463.18 250 494.795 250 533.758C250 572.72 281.723 604.336 320.873 604.336Z" fill="white"/>
<path d="M361.445 427.249C361.445 401.802 368.765 377.963 381.234 357.637L320.873 320.578L260.512 357.637C272.981 377.936 280.302 401.614 280.302 427.249C280.302 452.885 272.981 476.536 260.512 496.862L320.873 533.921L381.234 496.862C368.765 476.563 361.445 452.885 361.445 427.249Z" fill="white"/>
<path d="M490.119 497.935C529.27 497.935 560.992 466.32 560.992 427.357C560.992 388.395 529.27 356.779 490.119 356.779C450.969 356.779 419.246 388.368 419.246 427.357C419.246 466.347 450.969 497.935 490.119 497.935Z" fill="white"/>
<path d="M659.127 604.603C698.277 604.603 730 572.988 730 534.025C730 495.063 698.277 463.447 659.127 463.447C619.977 463.447 588.254 495.036 588.254 534.025C588.254 573.015 619.977 604.603 659.127 604.603Z" fill="white"/>
<path d="M490.119 711.089C529.27 711.089 560.992 679.474 560.992 640.512C560.992 601.549 529.27 569.934 490.119 569.934C450.969 569.934 419.246 601.549 419.246 640.512C419.246 679.474 450.969 711.089 490.119 711.089Z" fill="white"/>
<path d="M530.714 534.031C530.714 508.583 538.035 484.744 550.504 464.418L490.143 427.359L429.781 464.418C442.25 484.717 449.571 508.395 449.571 534.031C449.571 559.666 442.25 583.317 429.781 603.643L490.143 640.702L550.504 603.643C538.035 583.344 530.714 559.666 530.714 534.031Z" fill="white"/>
<path d="M320.873 817.461C360.024 817.461 391.746 785.845 391.746 746.883C391.746 707.92 360.024 676.305 320.873 676.305C281.723 676.305 250 707.92 250 746.883C250 785.845 281.723 817.461 320.873 817.461Z" fill="white"/>
<path d="M361.445 640.402C361.445 614.954 368.765 591.115 381.234 570.789L320.873 533.73L260.512 570.789C272.981 591.088 280.302 614.766 280.302 640.402C280.302 666.037 272.981 689.688 260.512 710.014L320.873 747.073L381.234 710.014C368.765 689.715 361.445 666.037 361.445 640.402Z" fill="white"/>
</svg>
